<svg width="66" height="66" viewBox="0 0 66 66" fill="none" xmlns="http://www.w3.org/2000/svg">
<g filter="url(#filter0_d_573_426)">
<rect x="10" y="3" width="46" height="46" rx="4" fill="#FE567E" fill-opacity="0.1" shape-rendering="crispEdges"/>
<path d="M42.6602 24.4395L41.6802 28.6195C40.8402 32.2295 39.1802 33.6895 36.0602 33.3895C35.5602 33.3495 35.0202 33.2595 34.4402 33.1195L32.7602 32.7195C28.5902 31.7295 27.3002 29.6695 28.2802 25.4895L29.2602 21.2995C29.4602 20.4495 29.7002 19.7095 30.0002 19.0995C31.1702 16.6795 33.1602 16.0295 36.5002 16.8195L38.1702 17.2095C42.3602 18.1895 43.6402 20.2595 42.6602 24.4395Z" stroke="#FE567E" stroke-width="1.5" stroke-linecap="round" stroke-linejoin="round"/>
<path d="M36.0603 33.3896C35.4403 33.8096 34.6603 34.1596 33.7103 34.4696L32.1303 34.9896C28.1603 36.2696 26.0703 35.1996 24.7803 31.2296L23.5003 27.2796C22.2203 23.3096 23.2803 21.2096 27.2503 19.9296L28.8303 19.4096C29.2403 19.2796 29.6303 19.1696 30.0003 19.0996C29.7003 19.7096 29.4603 20.4496 29.2603 21.2996L28.2803 25.4896C27.3003 29.6696 28.5903 31.7296 32.7603 32.7196L34.4403 33.1196C35.0203 33.2596 35.5603 33.3496 36.0603 33.3896Z" stroke="#FE567E" stroke-width="1.5" stroke-linecap="round" stroke-linejoin="round"/>
<path d="M33.6396 22.5303L38.4896 23.7603" stroke="#FE567E" stroke-width="1.5" stroke-linecap="round" stroke-linejoin="round"/>
<path d="M32.6602 26.4004L35.5602 27.1404" stroke="#FE567E" stroke-width="1.5" stroke-linecap="round" stroke-linejoin="round"/>
<rect x="11" y="4" width="44" height="44" rx="3" stroke="#FE567E" stroke-width="2" shape-rendering="crispEdges"/>
</g>
<defs>
<filter id="filter0_d_573_426" x="0" y="0" width="66" height="66" filterUnits="userSpaceOnUse" color-interpolation-filters="sRGB">
<feFlood flood-opacity="0" result="BackgroundImageFix"/>
<feColorMatrix in="SourceAlpha" type="matrix" values="0 0 0 0 0 0 0 0 0 0 0 0 0 0 0 0 0 0 127 0" result="hardAlpha"/>
<feOffset dy="7"/>
<feGaussianBlur stdDeviation="5"/>
<feComposite in2="hardAlpha" operator="out"/>
<feColorMatrix type="matrix" values="0 0 0 0 0.996078 0 0 0 0 0.337255 0 0 0 0 0.494118 0 0 0 0.2 0"/>
<feBlend mode="normal" in2="BackgroundImageFix" result="effect1_dropShadow_573_426"/>
<feBlend mode="normal" in="SourceGraphic" in2="effect1_dropShadow_573_426" result="shape"/>
</filter>
</defs>
</svg>
