<svg width="66" height="66" viewBox="0 0 66 66" fill="none" xmlns="http://www.w3.org/2000/svg">
<g filter="url(#filter0_d_573_631)">
<rect x="10" y="3" width="46" height="46" rx="4" fill="#5197FF" fill-opacity="0.1" shape-rendering="crispEdges"/>
<path d="M29 16V19" stroke="#5197FF" stroke-width="1.5" stroke-miterlimit="10" stroke-linecap="round" stroke-linejoin="round"/>
<path d="M37 16V19" stroke="#5197FF" stroke-width="1.5" stroke-miterlimit="10" stroke-linecap="round" stroke-linejoin="round"/>
<path d="M37 17.5C40.33 17.68 42 18.95 42 23.65V29.83C42 33.95 41 36.01 36 36.01H30C25 36.01 24 33.95 24 29.83V23.65C24 18.95 25.67 17.69 29 17.5H37Z" stroke="#5197FF" stroke-width="1.5" stroke-miterlimit="10" stroke-linecap="round" stroke-linejoin="round"/>
<path d="M41.75 31.5996H24.25" stroke="#5197FF" stroke-width="1.5" stroke-miterlimit="10" stroke-linecap="round" stroke-linejoin="round"/>
<path d="M33 22.25C31.77 22.25 30.73 22.92 30.73 24.22C30.73 24.84 31.02 25.31 31.46 25.61C30.85 25.97 30.5 26.55 30.5 27.23C30.5 28.47 31.45 29.24 33 29.24C34.54 29.24 35.5 28.47 35.5 27.23C35.5 26.55 35.15 25.96 34.53 25.61C34.98 25.3 35.26 24.84 35.26 24.22C35.26 22.92 34.23 22.25 33 22.25ZM33 25.09C32.48 25.09 32.1 24.78 32.1 24.29C32.1 23.79 32.48 23.5 33 23.5C33.52 23.5 33.9 23.79 33.9 24.29C33.9 24.78 33.52 25.09 33 25.09ZM33 28C32.34 28 31.86 27.67 31.86 27.07C31.86 26.47 32.34 26.15 33 26.15C33.66 26.15 34.14 26.48 34.14 27.07C34.14 27.67 33.66 28 33 28Z" fill="#5197FF"/>
<rect x="11" y="4" width="44" height="44" rx="3" stroke="#5197FF" stroke-width="2" shape-rendering="crispEdges"/>
</g>
<defs>
<filter id="filter0_d_573_631" x="0" y="0" width="66" height="66" filterUnits="userSpaceOnUse" color-interpolation-filters="sRGB">
<feFlood flood-opacity="0" result="BackgroundImageFix"/>
<feColorMatrix in="SourceAlpha" type="matrix" values="0 0 0 0 0 0 0 0 0 0 0 0 0 0 0 0 0 0 127 0" result="hardAlpha"/>
<feOffset dy="7"/>
<feGaussianBlur stdDeviation="5"/>
<feComposite in2="hardAlpha" operator="out"/>
<feColorMatrix type="matrix" values="0 0 0 0 0.317647 0 0 0 0 0.592157 0 0 0 0 1 0 0 0 0.2 0"/>
<feBlend mode="normal" in2="BackgroundImageFix" result="effect1_dropShadow_573_631"/>
<feBlend mode="normal" in="SourceGraphic" in2="effect1_dropShadow_573_631" result="shape"/>
</filter>
</defs>
</svg>
