<svg width="66" height="66" viewBox="0 0 66 66" fill="none" xmlns="http://www.w3.org/2000/svg">
<g filter="url(#filter0_d_573_872)">
<rect x="10" y="3" width="46" height="46" rx="4" fill="#FFAC30" fill-opacity="0.1" shape-rendering="crispEdges"/>
<path d="M40.3 21.9195V27.0695C40.3 30.1495 38.54 31.4695 35.9 31.4695H27.11C26.66 31.4695 26.23 31.4295 25.83 31.3395C25.58 31.2995 25.34 31.2295 25.12 31.1495C23.62 30.5895 22.71 29.2895 22.71 27.0695V21.9195C22.71 18.8395 24.47 17.5195 27.11 17.5195H35.9C38.14 17.5195 39.75 18.4695 40.18 20.6395C40.25 21.0395 40.3 21.4495 40.3 21.9195Z" stroke="#FFAC30" stroke-width="1.5" stroke-miterlimit="10" stroke-linecap="round" stroke-linejoin="round"/>
<path d="M43.3011 24.9196V30.0696C43.3011 33.1496 41.5411 34.4696 38.9011 34.4696H30.1111C29.3711 34.4696 28.7011 34.3697 28.1211 34.1497C26.9311 33.7097 26.1211 32.7997 25.8311 31.3397C26.2311 31.4297 26.6611 31.4696 27.1111 31.4696H35.9011C38.5411 31.4696 40.3011 30.1496 40.3011 27.0696V21.9196C40.3011 21.4496 40.2611 21.0296 40.1811 20.6396C42.0811 21.0396 43.3011 22.3796 43.3011 24.9196Z" stroke="#FFAC30" stroke-width="1.5" stroke-miterlimit="10" stroke-linecap="round" stroke-linejoin="round"/>
<path d="M31.4984 27.1394C32.9564 27.1394 34.1384 25.9574 34.1384 24.4994C34.1384 23.0414 32.9564 21.8594 31.4984 21.8594C30.0404 21.8594 28.8584 23.0414 28.8584 24.4994C28.8584 25.9574 30.0404 27.1394 31.4984 27.1394Z" stroke="#FFAC30" stroke-width="1.5" stroke-miterlimit="10" stroke-linecap="round" stroke-linejoin="round"/>
<path d="M25.7803 22.2998V26.6998" stroke="#FFAC30" stroke-width="1.5" stroke-miterlimit="10" stroke-linecap="round" stroke-linejoin="round"/>
<path d="M37.2217 22.2998V26.6998" stroke="#FFAC30" stroke-width="1.5" stroke-miterlimit="10" stroke-linecap="round" stroke-linejoin="round"/>
<rect x="11" y="4" width="44" height="44" rx="3" stroke="#FFAC30" stroke-width="2" shape-rendering="crispEdges"/>
</g>
<defs>
<filter id="filter0_d_573_872" x="0" y="0" width="66" height="66" filterUnits="userSpaceOnUse" color-interpolation-filters="sRGB">
<feFlood flood-opacity="0" result="BackgroundImageFix"/>
<feColorMatrix in="SourceAlpha" type="matrix" values="0 0 0 0 0 0 0 0 0 0 0 0 0 0 0 0 0 0 127 0" result="hardAlpha"/>
<feOffset dy="7"/>
<feGaussianBlur stdDeviation="5"/>
<feComposite in2="hardAlpha" operator="out"/>
<feColorMatrix type="matrix" values="0 0 0 0 1 0 0 0 0 0.67451 0 0 0 0 0.188235 0 0 0 0.2 0"/>
<feBlend mode="normal" in2="BackgroundImageFix" result="effect1_dropShadow_573_872"/>
<feBlend mode="normal" in="SourceGraphic" in2="effect1_dropShadow_573_872" result="shape"/>
</filter>
</defs>
</svg>
